<mxfile host="app.diagrams.net" modified="2023-09-20T17:04:41.839Z" agent="Mozilla/5.0 (Windows NT 10.0; Win64; x64) AppleWebKit/537.36 (KHTML, like Gecko) Chrome/117.0.0.0 Safari/537.36" etag="PTLDpcHJphLp45Lwwwuv" version="21.7.5" type="device">
  <diagram id="AxDjYkhR9DglB62pDZE8" name="Page-1">
    <mxGraphModel dx="1050" dy="1735" grid="1" gridSize="10" guides="1" tooltips="1" connect="1" arrows="1" fold="1" page="1" pageScale="1" pageWidth="850" pageHeight="1100" math="0" shadow="0">
      <root>
        <mxCell id="0" />
        <mxCell id="1" parent="0" />
        <mxCell id="sZx4sZHFijIDFqTBi8BH-1" value="START" style="ellipse;whiteSpace=wrap;html=1;" parent="1" vertex="1">
          <mxGeometry x="365" y="-960" width="120" height="80" as="geometry" />
        </mxCell>
        <mxCell id="sZx4sZHFijIDFqTBi8BH-2" value="INPUT MENYATAKAN&lt;br&gt;ADA 5 BARIS (LINES)" style="shape=parallelogram;perimeter=parallelogramPerimeter;whiteSpace=wrap;html=1;fixedSize=1;" parent="1" vertex="1">
          <mxGeometry x="338" y="-840" width="175" height="60" as="geometry" />
        </mxCell>
        <mxCell id="sZx4sZHFijIDFqTBi8BH-3" value="END" style="ellipse;whiteSpace=wrap;html=1;" parent="1" vertex="1">
          <mxGeometry x="365" y="-540" width="120" height="80" as="geometry" />
        </mxCell>
        <mxCell id="sZx4sZHFijIDFqTBi8BH-4" value="" style="endArrow=classic;html=1;rounded=0;" parent="1" source="6N6JbH6lbsIY325ItZFe-3" target="sZx4sZHFijIDFqTBi8BH-3" edge="1">
          <mxGeometry width="50" height="50" relative="1" as="geometry">
            <mxPoint x="790.5" y="-620" as="sourcePoint" />
            <mxPoint x="825" y="-540" as="targetPoint" />
          </mxGeometry>
        </mxCell>
        <mxCell id="sZx4sZHFijIDFqTBi8BH-5" value="" style="endArrow=classic;html=1;rounded=0;exitX=0.5;exitY=1;exitDx=0;exitDy=0;entryX=0.5;entryY=0;entryDx=0;entryDy=0;" parent="1" source="sZx4sZHFijIDFqTBi8BH-1" target="sZx4sZHFijIDFqTBi8BH-2" edge="1">
          <mxGeometry width="50" height="50" relative="1" as="geometry">
            <mxPoint x="410" y="-650" as="sourcePoint" />
            <mxPoint x="460" y="-700" as="targetPoint" />
          </mxGeometry>
        </mxCell>
        <mxCell id="6N6JbH6lbsIY325ItZFe-2" value="READ LOOPING&amp;nbsp;&lt;br&gt;For a = 0 to 4&amp;nbsp;&lt;br&gt;Read line [a]" style="rounded=1;whiteSpace=wrap;html=1;" vertex="1" parent="1">
          <mxGeometry x="338" y="-740" width="175" height="60" as="geometry" />
        </mxCell>
        <mxCell id="6N6JbH6lbsIY325ItZFe-3" value="PRINT LOOPING&lt;br&gt;For a = 0 to 4&lt;br&gt;Print line [a]" style="shape=parallelogram;perimeter=parallelogramPerimeter;whiteSpace=wrap;html=1;fixedSize=1;" vertex="1" parent="1">
          <mxGeometry x="338" y="-640" width="175" height="60" as="geometry" />
        </mxCell>
        <mxCell id="6N6JbH6lbsIY325ItZFe-4" value="" style="endArrow=classic;html=1;rounded=0;exitX=0.5;exitY=1;exitDx=0;exitDy=0;entryX=0.5;entryY=0;entryDx=0;entryDy=0;" edge="1" parent="1" source="6N6JbH6lbsIY325ItZFe-2" target="6N6JbH6lbsIY325ItZFe-3">
          <mxGeometry width="50" height="50" relative="1" as="geometry">
            <mxPoint x="570" y="-640" as="sourcePoint" />
            <mxPoint x="620" y="-690" as="targetPoint" />
          </mxGeometry>
        </mxCell>
        <mxCell id="6N6JbH6lbsIY325ItZFe-5" value="" style="endArrow=classic;html=1;rounded=0;exitX=0.5;exitY=1;exitDx=0;exitDy=0;entryX=0.5;entryY=0;entryDx=0;entryDy=0;" edge="1" parent="1" source="sZx4sZHFijIDFqTBi8BH-2" target="6N6JbH6lbsIY325ItZFe-2">
          <mxGeometry width="50" height="50" relative="1" as="geometry">
            <mxPoint x="570" y="-640" as="sourcePoint" />
            <mxPoint x="620" y="-690" as="targetPoint" />
          </mxGeometry>
        </mxCell>
      </root>
    </mxGraphModel>
  </diagram>
</mxfile>
